<?xml version="1.0" standalone="no"?>
<!DOCTYPE svg PUBLIC "-//W3C//DTD SVG 20010904//EN"
 "http://www.w3.org/TR/2001/REC-SVG-20010904/DTD/svg10.dtd">
<svg version="1.0" xmlns="http://www.w3.org/2000/svg"
 width="300.000000pt" height="300.000000pt" viewBox="0 0 300.000000 300.000000"
 preserveAspectRatio="xMidYMid meet">
<metadata>
Created by potrace 1.11, written by Peter Selinger 2001-2013
</metadata>
<g transform="translate(0.000000,300.000000) scale(0.100000,-0.100000)"
fill="#000000" stroke="none">
<path d="M1488 2955 c-1 -2 -23 -5 -48 -8 -73 -8 -228 -45 -326 -77 -475 -156
-759 -466 -758 -825 1 -90 9 -128 40 -193 29 -60 130 -168 189 -203 22 -12 42
-25 45 -29 3 -3 29 -16 58 -29 l52 -24 -17 -26 c-9 -14 -21 -31 -27 -38 -6 -6
-21 -27 -34 -45 -13 -18 -47 -67 -77 -108 -58 -81 -60 -102 -8 -114 48 -11
187 -68 205 -84 10 -8 18 -12 18 -9 0 9 118 -63 195 -118 89 -64 147 -123 296
-302 39 -48 182 -238 256 -343 45 -63 87 -120 92 -127 6 -7 11 -16 11 -22 0
-5 3 -11 8 -13 4 -2 32 -40 62 -85 30 -46 60 -83 66 -83 17 0 31 21 38 60 7
42 7 40 45 215 16 77 37 169 45 205 8 36 17 76 20 90 2 14 12 59 21 100 22
100 24 109 31 150 9 49 10 50 47 39 17 -6 39 -12 47 -14 8 -2 56 -16 105 -31
207 -60 257 -64 335 -24 66 34 117 130 126 235 2 22 5 54 7 72 3 30 -3 85 -18
160 -3 18 -22 78 -41 135 l-34 102 39 41 c52 52 59 74 56 170 -3 105 -46 221
-107 290 -15 18 -16 28 -7 90 11 65 8 197 -5 254 -17 74 -55 164 -99 231 -35
53 -160 176 -188 185 -10 4 -19 10 -19 14 0 15 -179 91 -262 113 -68 17 -118
22 -280 24 -108 1 -198 1 -200 -1z"/>
</g>
</svg>
